  <svg xmlns="http://www.w3.org/2000/svg" xmlns:xlink="http://www.w3.org/1999/xlink" height="38" viewBox="0 0 196 196">
  <defs>
    <linearGradient id="linear-gradient" x1="98" y1="11.5" x2="98" y2="184.5" gradientUnits="userSpaceOnUse">
      <stop offset="0" stop-color="#b0bec5"/>
      <stop offset="1" stop-color="#fff"/>
    </linearGradient>
    <clipPath id="clip-path" transform="translate(-183 -125)">
      <path id="bounds" d="M343.34,126.5H322v21.34A34.17,34.17,0,0,0,356.16,182H377.5V160.66A34.17,34.17,0,0,0,343.34,126.5Z" fill="none"/>
    </clipPath>
  </defs>
  <title>Logo LabeLift</title>
  <g id="Layer_box" data-name="Layer box">
    <path id="background" d="M377.5,183.5V284.41a35.09,35.09,0,0,1-35.09,35.09H219.59a35.09,35.09,0,0,1-35.09-35.09V161.59a35.09,35.09,0,0,1,35.09-35.09H320.5l46,11Z" transform="translate(-183 -125)" fill="#2962ff" stroke="#FFF" stroke-miterlimit="10" stroke-width="5"/>
    <rect id="background-grey" x="11.5" y="11.5" width="173" height="173" rx="28.17" ry="28.17" stroke="#FFF" stroke-miterlimit="10" fill="url(#linear-gradient)"/>
    <path id="sticker-tr" d="M342.41,126.5H320.5v21.91a35.09,35.09,0,0,0,35.09,35.09H377.5V161.59A35.09,35.09,0,0,0,342.41,126.5Z" transform="translate(-183 -125)" fill="#1e88e5" stroke="#FFF" stroke-miterlimit="10" stroke-width="5"/>
  </g>
  <g id="Layer_letters" data-name="Layer letters">
    <path id="Lr" d="M291.8,265.56q1.49-13.94,2.14-22.74,1.24-16.06,1.86-31.92t.63-26q8,.12,14.22.12c2.79,0,4.81,0,10-.12l-1.42,21.38-1.78,33.43-.24,8.21c6.77.12,13.19.18,15.24.18q15.52,0,23.51-.42l-1.3,17.84q-15.54-.12-29.59-.12Q306.09,265.44,291.8,265.56Z" transform="translate(-183 -125)" fill="#0d47a1" stroke="#fff" stroke-miterlimit="10" stroke-width="4"/>
    <path id="Ll" d="M208,265.56q1.62-15.28,2.34-24.94,1.36-17.61,2-35t.68-28.47q8.81.14,15.6.13c3.06,0,5.47,0,11.21-.13l-1.57,23.45-1.95,36.66-.26,9c7.43.13,14.27.19,16.52.19q17,0,25.78-.45L277,265.56q-17-.13-32.45-.13Q223.68,265.43,208,265.56Z" transform="translate(-183 -125)" fill="#0d47a1" stroke="#fff" stroke-miterlimit="10" stroke-width="4"/>
  </g>
  <g id="Layer_gears" data-name="Layer gears">
    <g id="clip-gears">
      <g clip-path="url(#clip-path)">
        <path id="gears-path" d="M350.08,142.12l-2.42,1.77a1.07,1.07,0,0,0-.43.7,1.13,1.13,0,0,0,.19.8l1.83,2.5a12.08,12.08,0,0,0-2.33,3.82l-3.06-.48a1.09,1.09,0,0,0-.8.2,1.18,1.18,0,0,0-.3.33,1.15,1.15,0,0,0-.12.37l-.47,3a1.08,1.08,0,0,0,.9,1.23l3.06.48a12.39,12.39,0,0,0,1.05,4.35l-2.5,1.82a1.11,1.11,0,0,0-.43.7,1.09,1.09,0,0,0,.2.8l1.77,2.43a1.09,1.09,0,0,0,.7.42,1,1,0,0,0,.8-.19l2.5-1.83a12.12,12.12,0,0,0,3.82,2.33l-.48,3.06a1.08,1.08,0,0,0,.9,1.23l3,.46a1.08,1.08,0,0,0,.8-.2,1,1,0,0,0,.43-.7l.48-3.06a12.39,12.39,0,0,0,4.35-1l1.82,2.5a1.07,1.07,0,0,0,1.5.23l2.43-1.77a1.09,1.09,0,0,0,.42-.7,1,1,0,0,0-.19-.8l-1.83-2.5a12.08,12.08,0,0,0,2.33-3.82L373,161a1.09,1.09,0,0,0,.8-.2,1.06,1.06,0,0,0,.43-.7l.46-3a1.08,1.08,0,0,0-.9-1.23l-3.06-.47a12.33,12.33,0,0,0-1.05-4.35l2.5-1.83a1.07,1.07,0,0,0,.23-1.5l-1.77-2.42a1.07,1.07,0,0,0-.7-.43,1.13,1.13,0,0,0-.8.19l-2.5,1.83a12.38,12.38,0,0,0-3.82-2.33l.48-3.06a1.09,1.09,0,0,0-.2-.8,1,1,0,0,0-.7-.42l-3-.47a1.08,1.08,0,0,0-1.23.9l-.47,3.06a12.33,12.33,0,0,0-4.35,1l-1.83-2.5A1.07,1.07,0,0,0,350.08,142.12Zm-6.37-9-1.88-1.1a1.07,1.07,0,0,0-1.47.38l-1,1.75a9.3,9.3,0,0,0-2.87-.39l-.51-1.95a1.07,1.07,0,0,0-1.31-.77l-2.12.56a1.05,1.05,0,0,0-.65.5,1.09,1.09,0,0,0-.11.81l.52,1.95a9.49,9.49,0,0,0-2.31,1.76l-1.75-1a1.08,1.08,0,0,0-.81-.11,1.13,1.13,0,0,0-.63.46l0,0-1.1,1.89a1.06,1.06,0,0,0,.38,1.46l1.75,1a9.3,9.3,0,0,0-.39,2.87l-2,.52a1.09,1.09,0,0,0-.66.49,1.12,1.12,0,0,0-.11.82l.56,2.11a1.06,1.06,0,0,0,.5.65,1,1,0,0,0,.81.11l2-.51a9.34,9.34,0,0,0,1.75,2.3l-1,1.75a1.1,1.1,0,0,0-.11.81,1.15,1.15,0,0,0,.5.66l1.89,1.1a1.09,1.09,0,0,0,1.47-.39l1-1.75a9.3,9.3,0,0,0,2.87.39l.52,2a1.07,1.07,0,0,0,1.31.76l2.11-.56a1.07,1.07,0,0,0,.66-.5,1.08,1.08,0,0,0,.11-.81l-.52-1.95a9.43,9.43,0,0,0,2.31-1.76l1.74,1a1.08,1.08,0,0,0,1.47-.39l1.1-1.89a1.07,1.07,0,0,0-.39-1.46l-1.75-1a9,9,0,0,0,.39-2.87l2-.52a1.07,1.07,0,0,0,.65-.49,1.12,1.12,0,0,0,.11-.82l-.56-2.11a1.07,1.07,0,0,0-1.31-.76l-2,.51a9.14,9.14,0,0,0-1.76-2.3l1-1.75a1.09,1.09,0,0,0,.11-.81A1,1,0,0,0,343.71,133.17Zm8.59,34.75-1.95-1a1.07,1.07,0,0,0-1.44.47l-.92,1.8a9.36,9.36,0,0,0-2.89-.24l-.62-1.92a1.07,1.07,0,0,0-1.35-.7l-2.08.67a1.06,1.06,0,0,0-.62.54,1,1,0,0,0-.07.81l.62,1.93a9.22,9.22,0,0,0-2.21,1.87l-1.8-.92a1.08,1.08,0,0,0-.81-.07,1.11,1.11,0,0,0-.61.49l0,0-1,1.95a1.07,1.07,0,0,0,.47,1.44l1.8.92a9.38,9.38,0,0,0-.24,2.89l-1.92.62a1.1,1.1,0,0,0-.63.53,1.11,1.11,0,0,0-.07.82l.67,2.08a1.08,1.08,0,0,0,.54.63,1,1,0,0,0,.81.06l1.93-.62a9.22,9.22,0,0,0,1.87,2.21l-.92,1.8a1.11,1.11,0,0,0-.07.82,1.08,1.08,0,0,0,.53.62l1.95,1a1.07,1.07,0,0,0,1.44-.46l.92-1.8a9.08,9.08,0,0,0,2.89.23l.62,1.93a1.08,1.08,0,0,0,1.35.69l2.08-.67a1.1,1.1,0,0,0,.63-.53,1.06,1.06,0,0,0,.06-.82l-.62-1.92a9.26,9.26,0,0,0,2.21-1.88l1.8.92a1.07,1.07,0,0,0,1.44-.46l1-1.95a1.07,1.07,0,0,0-.46-1.44l-1.8-.92a9.06,9.06,0,0,0,.23-2.89l1.93-.62a1.08,1.08,0,0,0,.62-.53,1.06,1.06,0,0,0,.07-.82l-.67-2.08a1.08,1.08,0,0,0-1.35-.69l-1.92.62a9.26,9.26,0,0,0-1.88-2.21l.92-1.8a1,1,0,0,0,.07-.81A1.1,1.1,0,0,0,352.3,167.92Zm-8.78-24.83a6.91,6.91,0,1,1-6.91-6.9A6.91,6.91,0,0,1,343.52,143.09Zm25,12.91a10,10,0,1,1-10-10A10,10,0,0,1,368.5,156Zm-15.67,22.25a7.25,7.25,0,1,1-7.25-7.25A7.25,7.25,0,0,1,352.83,178.25Zm-37.58-27-2.43,1.77a1,1,0,0,0-.42.7,1,1,0,0,0,.19.79l1.83,2.5a12.05,12.05,0,0,0-2.33,3.83L309,160.4a1.13,1.13,0,0,0-.8.19,1.08,1.08,0,0,0-.3.34,1.11,1.11,0,0,0-.13.36l-.46,3a1.08,1.08,0,0,0,.89,1.23l3.06.47a12.35,12.35,0,0,0,1.06,4.35l-2.5,1.83a1.11,1.11,0,0,0-.43.7,1.13,1.13,0,0,0,.19.8l1.78,2.42a1,1,0,0,0,.7.43,1.11,1.11,0,0,0,.79-.19l2.5-1.83a12.42,12.42,0,0,0,3.83,2.33l-.48,3.06a1.07,1.07,0,0,0,.89,1.22l3,.46a1,1,0,0,0,.8-.19,1.11,1.11,0,0,0,.43-.7l.47-3.06a12.33,12.33,0,0,0,4.35-1.05l1.83,2.5a1.08,1.08,0,0,0,1.5.23l2.42-1.77a1.07,1.07,0,0,0,.43-.7,1.13,1.13,0,0,0-.19-.8l-1.83-2.5a12.49,12.49,0,0,0,2.33-3.82l3.06.47a1,1,0,0,0,.8-.19,1.05,1.05,0,0,0,.42-.7l.46-3a1.06,1.06,0,0,0-.89-1.22l-3.06-.48a12.39,12.39,0,0,0-1.05-4.35l2.5-1.82a1.08,1.08,0,0,0,.23-1.5l-1.77-2.43a1.05,1.05,0,0,0-.7-.42,1,1,0,0,0-.8.19l-2.5,1.83a12.12,12.12,0,0,0-3.82-2.33l.47-3.06a1,1,0,0,0-.19-.8,1.11,1.11,0,0,0-.7-.43l-3-.46a1.07,1.07,0,0,0-1.22.89l-.48,3.06a12.4,12.4,0,0,0-4.35,1.06l-1.82-2.5A1.07,1.07,0,0,0,315.25,151.29Zm18.42,13.88a10,10,0,1,1-10-10A10,10,0,0,1,333.67,165.17Z" transform="translate(-183 -125)" fill="#fff"/>
      </g>
    </g>
  </g>
</svg>